# xmcd
#
# Track frame offsets:
#	150
#	25066
#	48983
#	73981
#	100389
#	120848
#	148499
#	179675
#	204282
#	229173
#	256410
#	282056
#
# Disc length: 4052 seconds
#
# Revision: 1
# Processed by: cddbd v1.5.2PL0 Copyright (c) Steve Scherf et al.
# Submitted via: EZCDAudioConverter 2.5.0.1
#
DISCID=b10fd20c
DTITLE=Tran Thanh Long - Cao Duc - Sang Ngang (Saxo -  Guitar)
DYEAR=2006
DGENRE=Vietnamese instrumental
TTITLE0=Sang ngang
TTITLE1=Xin con goi ten nhau
TTITLE2=Nang chieu
TTITLE3=Cho nguoi tinh lo
TTITLE4=Nua hon thuong dau
TTITLE5=Thang sau troi mua
TTITLE6=Rieng mot goc troi
TTITLE7=Thu ca
TTITLE8=Le da
TTITLE9=Tu giong hat em
TTITLE10=Chieu nay khong co em
TTITLE11=Khuc thuy du
EXTD=
EXTT0=
EXTT1=
EXTT2=
EXTT3=
EXTT4=
EXTT5=
EXTT6=
EXTT7=
EXTT8=
EXTT9=
EXTT10=
EXTT11=
PLAYORDER=
